<svg xmlns="http://www.w3.org/2000/svg" version="1.1" xmlns:xlink="http://www.w3.org/1999/xlink" xmlns:svgjs="http://svgjs.com/svgjs" width="1440" height="560" preserveAspectRatio="none" viewBox="0 0 1440 560"><g mask="url(&quot;#SvgjsMask1084&quot;)" fill="none"><rect width="1440" height="560" x="0" y="0" fill="rgba(59, 140, 225, 1)"></rect><path d="M0,627.129C121.343,637.404,244.655,605.936,347.249,540.33C449.971,474.642,547.278,380.649,572.116,261.277C595.94,146.777,519.719,39.453,473.85,-68.129C438.854,-150.211,385.002,-216.664,336.428,-291.516C278.668,-380.523,259.907,-510.235,161.387,-549.634C63.324,-588.85,-47.944,-531.274,-141.745,-482.739C-224.216,-440.067,-268.184,-354.4,-336.816,-291.853C-417.353,-218.457,-559.873,-190.482,-579.95,-83.384C-599.856,22.802,-474.365,97.877,-428.183,195.545C-382.849,291.419,-386.097,409.268,-311.404,484.554C-229.336,567.274,-116.108,617.297,0,627.129" fill="#1e70c5"></path><path d="M1440 1079.839C1538.523 1077.8220000000001 1632.299 1041.471 1714.3029999999999 986.8240000000001 1795.362 932.807 1854.175 855.749 1902.87 771.386 1955.8049999999998 679.677 2026.2150000000001 582.639 2007.786 478.365 1989.42 374.445 1882.612 315.877 1809.002 240.25799999999998 1740.026 169.39999999999998 1683.213 82.166 1589.993 49.17099999999999 1494.519 15.378000000000043 1388.946 26.734000000000037 1292.4279999999999 57.41699999999997 1197.295 87.66000000000003 1115.143 146.43099999999998 1048.964 221.166 982.271 296.482 922.181 384.125 914.314 484.418 906.635 582.315 964.736 669.104 1006.8720000000001 757.803 1048.356 845.13 1080.8 940.518 1158.384 998.203 1238.438 1057.724 1340.264 1081.88 1440 1079.839" fill="#6ca9e9"></path></g><defs><mask id="SvgjsMask1084"><rect width="1440" height="560" fill="#ffffff"></rect></mask></defs></svg>