<svg xmlns="http://www.w3.org/2000/svg" version="1.1" xmlns:xlink="http://www.w3.org/1999/xlink" xmlns:svgjs="http://svgjs.com/svgjs" width="1440" height="560" preserveAspectRatio="none" viewBox="0 0 1440 560"><g mask="url(&quot;#SvgjsMask1017&quot;)" fill="none"><path d="M1631.78 272.17C1461.43 275.34 1318.96 498.28 988.14 496.17 657.32 494.06 550.47-1.82 344.5-34.54" stroke="rgba(39, 7, 245, 1)" stroke-width="2"></path><path d="M1631.14 283.22C1465.02 284.34 1317.15 442.08 985.43 440.02 653.71 437.96 536.82 1.35 339.72-21.57" stroke="rgba(39, 7, 245, 1)" stroke-width="2"></path><path d="M1466.97 305.47C1347.42 305.28 1230.45 235.47 993.94 235.47 757.42 235.47 768.06 308.61 520.9 305.47 273.74 302.33 194.81-32.51 47.87-51.82" stroke="rgba(39, 7, 245, 1)" stroke-width="2"></path><path d="M1483.66 441.24C1379.23 440.99 1277.76 371.24 1071.85 371.24 865.95 371.24 893.02 454.69 660.04 441.24 427.06 427.79 403.1-14.9 248.23-68.07" stroke="rgba(39, 7, 245, 1)" stroke-width="2"></path><path d="M1552.49 362.88C1408.68 355.33 1321.18 110.35 1040.12 99.68 759.06 89.01 665.32-97.96 527.75-101.52" stroke="rgba(39, 7, 245, 1)" stroke-width="2"></path></g><defs><mask id="SvgjsMask1017"><rect width="1440" height="560" fill="#ffffff"></rect></mask></defs></svg>