<svg width="984" height="778" viewBox="0 0 984 778" fill="none" xmlns="http://www.w3.org/2000/svg">
<g filter="url(#filter0_d)">
<path d="M480.194 175.175H476.092V64.2186C476.092 47.1868 469.238 30.8525 457.039 18.8092C444.84 6.76589 428.295 2.12374e-05 411.043 4.07571e-10H172.926C164.384 -3.00439e-05 155.925 1.661 148.033 4.88826C140.141 8.11551 132.97 12.8458 126.929 18.809C120.889 24.7722 116.097 31.8516 112.828 39.6429C109.559 47.4343 107.877 55.785 107.877 64.2183V672.934C107.877 681.367 109.559 689.718 112.828 697.509C116.097 705.3 120.889 712.38 126.929 718.343C132.969 724.306 140.14 729.036 148.032 732.264C155.924 735.491 164.383 737.152 172.926 737.152H411.042C419.585 737.152 428.043 735.491 435.936 732.264C443.828 729.037 450.999 724.306 457.039 718.343C463.08 712.38 467.871 705.301 471.14 697.509C474.409 689.718 476.092 681.367 476.092 672.934V254.155H480.194V175.175Z" fill="#3F3D56"/>
<path d="M413.177 18.2263H382.095C383.525 21.6859 384.07 25.4395 383.684 29.1564C383.298 32.8732 381.992 36.4393 379.881 39.5404C377.77 42.6415 374.918 45.1825 371.578 46.9396C368.238 48.6966 364.512 49.6157 360.727 49.616H224.313C220.528 49.6157 216.802 48.6966 213.462 46.9396C210.121 45.1825 207.27 42.6415 205.159 39.5404C203.048 36.4393 201.742 32.8732 201.356 29.1564C200.97 25.4395 201.515 21.6859 202.945 18.2263H173.914C161.03 18.2263 148.674 23.2789 139.564 32.2727C130.454 41.2665 125.336 53.4647 125.336 66.1839V674.006C125.336 680.304 126.592 686.54 129.034 692.358C131.475 698.177 135.053 703.464 139.564 707.917C144.075 712.37 149.43 715.903 155.324 718.313C161.218 720.723 167.534 721.963 173.914 721.963H413.177C426.061 721.963 438.417 716.911 447.527 707.917C456.637 698.923 461.755 686.725 461.755 674.006V66.1839C461.755 59.8861 460.499 53.6498 458.058 47.8313C455.616 42.0128 452.038 36.726 447.527 32.2727C443.016 27.8195 437.661 24.2869 431.767 21.8768C425.874 19.4667 419.557 18.2263 413.177 18.2263H413.177ZM407.955 300.199C407.946 303.49 406.617 306.644 404.259 308.972C401.902 311.299 398.707 312.611 395.373 312.621H334.556C331.222 312.611 328.027 311.299 325.67 308.972C323.312 306.644 321.983 303.49 321.974 300.199V297.093C321.983 293.802 323.312 290.648 325.67 288.32C328.027 285.993 331.222 284.681 334.556 284.671H395.373C398.707 284.681 401.902 285.993 404.259 288.32C406.617 290.648 407.945 293.802 407.955 297.093V300.199ZM414.771 245.335C414.761 248.626 413.432 251.78 411.075 254.108C408.717 256.435 405.522 257.747 402.188 257.757H184.088C180.754 257.747 177.559 256.435 175.202 254.108C172.844 251.78 171.515 248.626 171.505 245.335V242.229C171.515 238.938 172.844 235.784 175.202 233.456C177.559 231.129 180.754 229.817 184.088 229.807H402.188C405.522 229.817 408.717 231.129 411.075 233.456C413.432 235.784 414.761 238.938 414.771 242.229V245.335ZM414.771 190.471C414.761 193.762 413.432 196.916 411.075 199.244C408.717 201.571 405.522 202.883 402.188 202.893H184.088C180.754 202.883 177.559 201.572 175.202 199.244C172.844 196.917 171.515 193.762 171.505 190.471V187.365C171.515 184.074 172.844 180.92 175.202 178.592C177.559 176.265 180.754 174.953 184.088 174.943H402.188C405.522 174.953 408.717 176.265 411.075 178.592C413.432 180.92 414.761 184.074 414.771 187.365V190.471ZM414.771 135.607C414.761 138.899 413.432 142.053 411.075 144.38C408.717 146.708 405.522 148.019 402.188 148.029H184.088C180.754 148.019 177.559 146.708 175.202 144.38C172.844 142.053 171.515 138.899 171.505 135.607V132.501C171.515 129.21 172.844 126.056 175.202 123.728C177.559 121.401 180.754 120.089 184.088 120.079H402.188C405.522 120.089 408.717 121.401 411.075 123.728C413.432 126.056 414.761 129.21 414.771 132.501V135.607Z" fill="white"/>
<path d="M188.807 251.546C192.86 251.546 196.147 248.302 196.147 244.3C196.147 240.298 192.86 237.054 188.807 237.054C184.753 237.054 181.467 240.298 181.467 244.3C181.467 248.302 184.753 251.546 188.807 251.546Z" fill="white"/>
<path d="M212.924 251.546C216.977 251.546 220.263 248.302 220.263 244.3C220.263 240.298 216.977 237.054 212.924 237.054C208.87 237.054 205.584 240.298 205.584 244.3C205.584 248.302 208.87 251.546 212.924 251.546Z" fill="white"/>
<path d="M237.04 251.546C241.094 251.546 244.38 248.302 244.38 244.3C244.38 240.298 241.094 237.054 237.04 237.054C232.987 237.054 229.7 240.298 229.7 244.3C229.7 248.302 232.987 251.546 237.04 251.546Z" fill="white"/>
<path d="M261.157 251.546C265.211 251.546 268.497 248.302 268.497 244.3C268.497 240.298 265.211 237.054 261.157 237.054C257.103 237.054 253.817 240.298 253.817 244.3C253.817 248.302 257.103 251.546 261.157 251.546Z" fill="white"/>
<path d="M339.799 306.41C343.853 306.41 347.139 303.166 347.139 299.164C347.139 295.162 343.853 291.917 339.799 291.917C335.745 291.917 332.459 295.162 332.459 299.164C332.459 303.166 335.745 306.41 339.799 306.41Z" fill="white"/>
<path d="M363.916 306.41C367.97 306.41 371.256 303.166 371.256 299.164C371.256 295.162 367.97 291.917 363.916 291.917C359.862 291.917 356.576 295.162 356.576 299.164C356.576 303.166 359.862 306.41 363.916 306.41Z" fill="white"/>
<path d="M388.033 306.41C392.086 306.41 395.373 303.166 395.373 299.164C395.373 295.162 392.086 291.917 388.033 291.917C383.979 291.917 380.693 295.162 380.693 299.164C380.693 303.166 383.979 306.41 388.033 306.41Z" fill="white"/>
<path d="M416.458 393.051H167.721C161.877 393.051 156.273 395.343 152.141 399.422C148.009 403.502 145.687 409.034 145.687 414.804V534.446C145.687 540.215 148.009 545.748 152.141 549.827C156.273 553.906 161.877 556.198 167.721 556.198H416.458C422.302 556.198 427.906 553.906 432.038 549.827C436.171 545.748 438.492 540.215 438.492 534.446V414.804C438.492 409.035 436.171 403.502 432.039 399.422C427.906 395.343 422.302 393.051 416.458 393.051H416.458ZM161.567 407.89C162.058 407.802 173.705 405.845 183.35 411.574C192.994 417.303 196.699 428.379 196.852 428.848L197.242 430.042L195.99 430.261C194.205 430.536 192.4 430.667 190.593 430.653C184.86 430.761 179.203 429.353 174.207 426.575C164.563 420.848 160.858 409.772 160.705 409.303L160.315 408.109L161.567 407.89ZM215.561 518.97H171.197C167.961 518.97 164.858 517.701 162.57 515.442C160.282 513.184 158.997 510.12 158.997 506.926C158.997 503.731 160.282 500.668 162.57 498.409C164.858 496.15 167.961 494.881 171.197 494.881H215.561C218.797 494.881 221.9 496.15 224.188 498.409C226.476 500.668 227.761 503.731 227.761 506.926C227.761 510.12 226.476 513.184 224.188 515.442C221.9 517.701 218.797 518.97 215.561 518.97V518.97ZM417.419 516.78C417.409 520.262 416.003 523.598 413.509 526.06C411.016 528.522 407.636 529.909 404.11 529.92H370.836C367.31 529.909 363.93 528.522 361.437 526.06C358.943 523.598 357.537 520.262 357.527 516.78V497.071C357.537 493.589 358.943 490.253 361.437 487.791C363.93 485.33 367.31 483.942 370.836 483.932H404.11C407.636 483.942 411.016 485.329 413.509 487.791C416.003 490.253 417.409 493.589 417.419 497.071L417.419 516.78Z" fill="#6C63FF"/>
<path d="M381.564 512.719H368.186C367.231 512.719 366.315 513.093 365.639 513.76C364.964 514.427 364.584 515.331 364.584 516.275C364.584 517.218 364.964 518.122 365.639 518.789C366.315 519.456 367.231 519.83 368.186 519.83H381.564C382.52 519.83 383.436 519.456 384.111 518.789C384.787 518.122 385.166 517.218 385.166 516.275C385.166 515.331 384.787 514.427 384.111 513.76C383.436 513.093 382.52 512.719 381.564 512.719V512.719Z" fill="#3F3D56"/>
<path d="M406.263 512.719H392.884C391.929 512.719 391.013 513.093 390.338 513.76C389.662 514.427 389.283 515.331 389.283 516.275C389.283 517.218 389.662 518.122 390.338 518.789C391.013 519.456 391.929 519.83 392.884 519.83H406.263C407.218 519.83 408.134 519.456 408.81 518.789C409.485 518.122 409.865 517.218 409.865 516.275C409.865 515.331 409.485 514.427 408.81 513.76C408.134 513.093 407.218 512.719 406.263 512.719V512.719Z" fill="#3F3D56"/>
<path d="M381.562 502.681H368.184C367.229 502.681 366.313 503.056 365.637 503.723C364.962 504.389 364.582 505.294 364.582 506.237C364.582 507.18 364.962 508.084 365.637 508.751C366.313 509.418 367.229 509.793 368.184 509.793H381.562C382.518 509.793 383.434 509.418 384.109 508.751C384.785 508.084 385.164 507.18 385.164 506.237C385.164 505.294 384.785 504.389 384.109 503.723C383.434 503.056 382.518 502.681 381.562 502.681V502.681Z" fill="#3F3D56"/>
<path d="M406.261 502.681H392.882C391.927 502.681 391.011 503.056 390.336 503.723C389.66 504.389 389.281 505.294 389.281 506.237C389.281 507.18 389.66 508.084 390.336 508.751C391.011 509.418 391.927 509.793 392.882 509.793H406.261C407.216 509.793 408.132 509.418 408.808 508.751C409.483 508.084 409.863 507.18 409.863 506.237C409.863 505.294 409.483 504.389 408.808 503.723C408.132 503.056 407.216 502.681 406.261 502.681H406.261Z" fill="#3F3D56"/>
<path d="M381.562 492.847H368.184C367.229 492.847 366.313 493.221 365.637 493.888C364.962 494.555 364.582 495.459 364.582 496.402C364.582 497.345 364.962 498.25 365.637 498.917C366.313 499.584 367.229 499.958 368.184 499.958H381.562C382.518 499.958 383.434 499.584 384.109 498.917C384.785 498.25 385.164 497.345 385.164 496.402C385.164 495.459 384.785 494.555 384.109 493.888C383.434 493.221 382.518 492.847 381.562 492.847V492.847Z" fill="#3F3D56"/>
<path d="M406.261 492.847H392.882C391.927 492.847 391.011 493.221 390.336 493.888C389.66 494.555 389.281 495.459 389.281 496.402C389.281 497.345 389.66 498.25 390.336 498.917C391.011 499.584 391.927 499.958 392.882 499.958H406.261C407.216 499.958 408.132 499.584 408.808 498.917C409.483 498.25 409.863 497.345 409.863 496.402C409.863 495.459 409.483 494.555 408.808 493.888C408.132 493.221 407.216 492.847 406.261 492.847H406.261Z" fill="#3F3D56"/>
<path d="M588.737 438.12H556.293V470.15H588.737V438.12Z" fill="#E6E6E6"/>
<path d="M518.056 457.567H571.357V510.187H518.056V457.567ZM569.039 459.855H520.373V507.899H569.039V459.855Z" fill="#3F3D56"/>
<path d="M24.444 173.875H-8V205.905H24.444V173.875Z" fill="#E6E6E6"/>
<path d="M62.6815 186.458H9.38074V133.838H62.6815V186.458ZM11.6982 184.171H60.3641V136.126H11.6982V184.171Z" fill="#3F3D56"/>
<path d="M748.729 756.606H734.523L727.766 702.513H748.731L748.729 756.606Z" fill="#FFB8B8"/>
<path d="M724.376 752.599H751.773V769.628H707.127C707.127 765.111 708.944 760.78 712.179 757.586C715.414 754.393 719.801 752.599 724.376 752.599V752.599Z" fill="#2F2E41"/>
<path d="M819.411 756.606H805.205L798.447 702.513H819.413L819.411 756.606Z" fill="#FFB8B8"/>
<path d="M795.058 752.599H822.454V769.628H777.808C777.808 765.111 779.626 760.78 782.86 757.586C786.095 754.393 790.483 752.599 795.058 752.599V752.599Z" fill="#2F2E41"/>
<path d="M677.467 563.154C676.445 561.668 675.766 559.978 675.477 558.204C675.188 556.431 675.296 554.616 675.794 552.888C676.293 551.16 677.169 549.561 678.361 548.204C679.553 546.846 681.032 545.763 682.693 545.031L730.984 413.633L754.745 426.435L699.608 552.004C700.669 554.841 700.639 557.964 699.523 560.781C698.407 563.598 696.284 565.913 693.554 567.288C690.825 568.662 687.68 569.001 684.715 568.239C681.75 567.477 679.171 565.668 677.467 563.154V563.154Z" fill="#FFB8B8"/>
<path d="M812.154 587.844C810.576 586.951 809.215 585.726 808.167 584.257C807.12 582.788 806.411 581.11 806.092 579.342C805.772 577.573 805.849 575.757 806.317 574.021C806.786 572.285 807.634 570.671 808.802 569.294L793.842 430.297L820.884 431.517L827.101 568.238C829.315 570.329 830.675 573.15 830.923 576.164C831.172 579.179 830.291 582.179 828.449 584.596C826.607 587.012 823.93 588.678 820.927 589.277C817.924 589.875 814.802 589.366 812.154 587.844V587.844Z" fill="#FFB8B8"/>
<path d="M769.015 389.295C784.732 389.295 797.474 376.716 797.474 361.199C797.474 345.682 784.732 333.103 769.015 333.103C753.297 333.103 740.556 345.682 740.556 361.199C740.556 376.716 753.297 389.295 769.015 389.295Z" fill="#FFB8B8"/>
<path d="M811.973 556.232H726.174L726.277 555.573C726.431 554.588 741.568 456.694 730.404 424.668C729.284 421.521 729.382 418.076 730.68 414.996C731.979 411.916 734.385 409.419 737.436 407.986H737.437C753.394 400.567 784.026 391.432 809.88 413.601C813.684 416.917 816.655 421.062 818.557 425.707C820.46 430.352 821.241 435.37 820.84 440.365L811.973 556.232Z" fill="#CCCCCC"/>
<path d="M742.652 471.161L704.025 463.425L722.131 421.066C723.215 416.963 725.902 413.452 729.604 411.303C733.306 409.154 737.721 408.542 741.879 409.602C746.038 410.662 749.601 413.306 751.787 416.956C753.972 420.606 754.602 424.963 753.539 429.07L742.652 471.161Z" fill="#CCCCCC"/>
<path d="M792.125 485.526L789.803 432.973C788.042 423.094 793.77 413.755 802.58 412.228C811.393 410.707 819.998 417.559 821.767 427.511L830.495 476.617L792.125 485.526Z" fill="#CCCCCC"/>
<path d="M809.118 549.941C822.924 601.848 824.43 667.844 820.705 739.831L802.166 737.543L768.563 600.273L750.024 739.831L729.167 738.687C722.936 663.155 716.869 598.311 726.85 555.66L809.118 549.941Z" fill="#2F2E41"/>
<path d="M787.767 382.912C782.457 388.495 772.598 385.498 771.906 377.871C771.852 377.279 771.855 376.683 771.917 376.091C772.275 372.713 774.252 369.645 773.778 366.078C773.671 365.19 773.336 364.344 772.805 363.62C768.574 358.027 758.643 366.121 754.65 361.058C752.201 357.954 755.079 353.065 753.201 349.595C750.721 345.016 743.376 347.275 738.77 344.767C733.646 341.976 733.952 334.214 737.325 329.492C741.44 323.734 748.653 320.662 755.776 320.219C762.899 319.776 769.974 321.677 776.624 324.236C784.18 327.143 791.673 331.161 796.323 337.72C801.978 345.697 802.522 356.421 799.694 365.748C797.973 371.422 792.102 378.353 787.767 382.912Z" fill="#2F2E41"/>
</g>
<defs>
<filter id="filter0_d" x="-12" y="0" width="1000" height="779" filterUnits="userSpaceOnUse" color-interpolation-filters="sRGB">
<feFlood flood-opacity="0" result="BackgroundImageFix"/>
<feColorMatrix in="SourceAlpha" type="matrix" values="0 0 0 0 0 0 0 0 0 0 0 0 0 0 0 0 0 0 127 0"/>
<feOffset dy="4"/>
<feGaussianBlur stdDeviation="2"/>
<feColorMatrix type="matrix" values="0 0 0 0 0 0 0 0 0 0 0 0 0 0 0 0 0 0 0.25 0"/>
<feBlend mode="normal" in2="BackgroundImageFix" result="effect1_dropShadow"/>
<feBlend mode="normal" in="SourceGraphic" in2="effect1_dropShadow" result="shape"/>
</filter>
</defs>
</svg>
