<svg width="80" height="80" viewBox="0 0 80 80" fill="none" xmlns="http://www.w3.org/2000/svg">
<path fill-rule="evenodd" clip-rule="evenodd" d="M20 60C31.0457 60 40 51.0457 40 40C40 28.9543 31.0457 20 20 20C8.9543 20 0 28.9543 0 40C0 51.0457 8.9543 60 20 60Z" fill="#2971D5"/>
<path fill-rule="evenodd" clip-rule="evenodd" d="M60 60C71.0457 60 80 51.0457 80 40C80 28.9543 71.0457 20 60 20C48.9543 20 40 28.9543 40 40C40 51.0457 48.9543 60 60 60Z" fill="#2971D5"/>
<path fill-rule="evenodd" clip-rule="evenodd" d="M41 80C52.0457 80 61 71.0457 61 60C61 48.9543 52.0457 40 41 40C29.9543 40 21 48.9543 21 60C21 71.0457 29.9543 80 41 80Z" fill="#FC1785"/>
<path fill-rule="evenodd" clip-rule="evenodd" d="M41 40C52.0457 40 61 31.0457 61 20C61 8.9543 52.0457 0 41 0C29.9543 0 21 8.9543 21 20C21 31.0457 29.9543 40 41 40Z" fill="#FC1785"/>
</svg>
