<svg xmlns="http://www.w3.org/2000/svg" version="1.1" xmlns:xlink="http://www.w3.org/1999/xlink" xmlns:svgjs="http://svgjs.com/svgjs" width="1440" height="560" preserveAspectRatio="none" viewBox="0 0 1440 560"><g mask="url(&quot;#SvgjsMask1013&quot;)" fill="none"><path d="M-87.14 347.85L-87.14 347.85" stroke="#132e65" stroke-width="1.5"></path><path d="M-87.14 347.85L-86.97 491.63" stroke="#132e65" stroke-width="1.5"></path><path d="M-87.14 347.85L49.69 545.35" stroke="#132e65" stroke-width="1.5"></path><path d="M-87.14 347.85L190.03 377.49" stroke="#132e65" stroke-width="1.5"></path><path d="M-87.14 347.85L89.63 707.38" stroke="#132e65" stroke-width="1.5"></path><path d="M-87.14 347.85L246.31 661.25" stroke="#132e65" stroke-width="1.5"></path><path d="M-87.14 347.85L401.36 540.07" stroke="#132e65" stroke-width="1.5"></path><path d="M-86.97 491.63L-86.97 491.63" stroke="#132e65" stroke-width="1.5"></path><path d="M-86.97 491.63L49.69 545.35" stroke="#132e65" stroke-width="1.5"></path><path d="M-86.97 491.63L89.63 707.38" stroke="#132e65" stroke-width="1.5"></path><path d="M-86.97 491.63L190.03 377.49" stroke="#132e65" stroke-width="1.5"></path><path d="M49.69 545.35L49.69 545.35" stroke="#132e65" stroke-width="1.5"></path><path d="M49.69 545.35L89.63 707.38" stroke="#132e65" stroke-width="1.5"></path><path d="M89.63 707.38L89.63 707.38" stroke="#132e65" stroke-width="1.5"></path><path d="M89.63 707.38L246.31 661.25" stroke="#132e65" stroke-width="1.5"></path><path d="M190.03 377.49L190.03 377.49" stroke="#132e65" stroke-width="1.5"></path><path d="M190.03 377.49L49.69 545.35" stroke="#132e65" stroke-width="1.5"></path><path d="M246.31 661.25L246.31 661.25" stroke="#132e65" stroke-width="1.5"></path><path d="M246.31 661.25L384.42 668.81" stroke="#132e65" stroke-width="1.5"></path><path d="M246.31 661.25L401.36 540.07" stroke="#132e65" stroke-width="1.5"></path><path d="M246.31 661.25L49.69 545.35" stroke="#132e65" stroke-width="1.5"></path><path d="M401.36 540.07L401.36 540.07" stroke="#132e65" stroke-width="1.5"></path><path d="M401.36 540.07L520.84 524.41" stroke="#132e65" stroke-width="1.5"></path><path d="M401.36 540.07L384.42 668.81" stroke="#132e65" stroke-width="1.5"></path><path d="M384.42 668.81L384.42 668.81" stroke="#132e65" stroke-width="1.5"></path><path d="M559.81 394.3L559.81 394.3" stroke="#132e65" stroke-width="1.5"></path><path d="M559.81 394.3L661.07 356.61" stroke="#132e65" stroke-width="1.5"></path><path d="M559.81 394.3L520.84 524.41" stroke="#132e65" stroke-width="1.5"></path><path d="M559.81 394.3L685.86 524.72" stroke="#132e65" stroke-width="1.5"></path><path d="M559.81 394.3L401.36 540.07" stroke="#132e65" stroke-width="1.5"></path><path d="M520.84 524.41L520.84 524.41" stroke="#132e65" stroke-width="1.5"></path><path d="M520.84 524.41L553.32 678.58" stroke="#132e65" stroke-width="1.5"></path><path d="M520.84 524.41L685.86 524.72" stroke="#132e65" stroke-width="1.5"></path><path d="M553.32 678.58L553.32 678.58" stroke="#132e65" stroke-width="1.5"></path><path d="M553.32 678.58L640.42 696.47" stroke="#132e65" stroke-width="1.5"></path><path d="M553.32 678.58L384.42 668.81" stroke="#132e65" stroke-width="1.5"></path><path d="M553.32 678.58L685.86 524.72" stroke="#132e65" stroke-width="1.5"></path><path d="M553.32 678.58L401.36 540.07" stroke="#132e65" stroke-width="1.5"></path><path d="M553.32 678.58L821.37 697.57" stroke="#132e65" stroke-width="1.5"></path><path d="M661.07 356.61L661.07 356.61" stroke="#132e65" stroke-width="1.5"></path><path d="M661.07 356.61L685.86 524.72" stroke="#132e65" stroke-width="1.5"></path><path d="M685.86 524.72L685.86 524.72" stroke="#132e65" stroke-width="1.5"></path><path d="M685.86 524.72L801.08 546.32" stroke="#132e65" stroke-width="1.5"></path><path d="M640.42 696.47L640.42 696.47" stroke="#132e65" stroke-width="1.5"></path><path d="M640.42 696.47L685.86 524.72" stroke="#132e65" stroke-width="1.5"></path><path d="M640.42 696.47L821.37 697.57" stroke="#132e65" stroke-width="1.5"></path><path d="M861.28 221.75L861.28 221.75" stroke="#132e65" stroke-width="1.5"></path><path d="M861.28 221.75L966.34 254.1" stroke="#132e65" stroke-width="1.5"></path><path d="M861.28 221.75L851.51 357.06" stroke="#132e65" stroke-width="1.5"></path><path d="M861.28 221.75L979.92 109.86" stroke="#132e65" stroke-width="1.5"></path><path d="M861.28 221.75L986.61 398.78" stroke="#132e65" stroke-width="1.5"></path><path d="M851.51 357.06L851.51 357.06" stroke="#132e65" stroke-width="1.5"></path><path d="M851.51 357.06L986.61 398.78" stroke="#132e65" stroke-width="1.5"></path><path d="M851.51 357.06L966.34 254.1" stroke="#132e65" stroke-width="1.5"></path><path d="M851.51 357.06L661.07 356.61" stroke="#132e65" stroke-width="1.5"></path><path d="M801.08 546.32L801.08 546.32" stroke="#132e65" stroke-width="1.5"></path><path d="M801.08 546.32L821.37 697.57" stroke="#132e65" stroke-width="1.5"></path><path d="M801.08 546.32L964.29 551.16" stroke="#132e65" stroke-width="1.5"></path><path d="M821.37 697.57L821.37 697.57" stroke="#132e65" stroke-width="1.5"></path><path d="M821.37 697.57L938.54 637.51" stroke="#132e65" stroke-width="1.5"></path><path d="M821.37 697.57L964.29 551.16" stroke="#132e65" stroke-width="1.5"></path><path d="M1009.25 -104.75L1009.25 -104.75" stroke="#132e65" stroke-width="1.5"></path><path d="M1009.25 -104.75L1150.74 -85.17" stroke="#132e65" stroke-width="1.5"></path><path d="M1009.25 -104.75L979.92 109.86" stroke="#132e65" stroke-width="1.5"></path><path d="M1009.25 -104.75L1244.09 -83.05" stroke="#132e65" stroke-width="1.5"></path><path d="M979.92 109.86L979.92 109.86" stroke="#132e65" stroke-width="1.5"></path><path d="M979.92 109.86L966.34 254.1" stroke="#132e65" stroke-width="1.5"></path><path d="M979.92 109.86L1149.64 106.08" stroke="#132e65" stroke-width="1.5"></path><path d="M979.92 109.86L1150.74 -85.17" stroke="#132e65" stroke-width="1.5"></path><path d="M966.34 254.1L966.34 254.1" stroke="#132e65" stroke-width="1.5"></path><path d="M966.34 254.1L986.61 398.78" stroke="#132e65" stroke-width="1.5"></path><path d="M986.61 398.78L986.61 398.78" stroke="#132e65" stroke-width="1.5"></path><path d="M986.61 398.78L964.29 551.16" stroke="#132e65" stroke-width="1.5"></path><path d="M986.61 398.78L1121.66 554.76" stroke="#132e65" stroke-width="1.5"></path><path d="M964.29 551.16L964.29 551.16" stroke="#132e65" stroke-width="1.5"></path><path d="M964.29 551.16L938.54 637.51" stroke="#132e65" stroke-width="1.5"></path><path d="M964.29 551.16L1121.66 554.76" stroke="#132e65" stroke-width="1.5"></path><path d="M964.29 551.16L1133.18 660.54" stroke="#132e65" stroke-width="1.5"></path><path d="M938.54 637.51L938.54 637.51" stroke="#132e65" stroke-width="1.5"></path><path d="M938.54 637.51L801.08 546.32" stroke="#132e65" stroke-width="1.5"></path><path d="M938.54 637.51L1133.18 660.54" stroke="#132e65" stroke-width="1.5"></path><path d="M938.54 637.51L1121.66 554.76" stroke="#132e65" stroke-width="1.5"></path><path d="M1150.74 -85.17L1150.74 -85.17" stroke="#132e65" stroke-width="1.5"></path><path d="M1150.74 -85.17L1244.09 -83.05" stroke="#132e65" stroke-width="1.5"></path><path d="M1150.74 -85.17L1149.64 106.08" stroke="#132e65" stroke-width="1.5"></path><path d="M1149.64 106.08L1149.64 106.08" stroke="#132e65" stroke-width="1.5"></path><path d="M1149.64 106.08L1267.67 101.93" stroke="#132e65" stroke-width="1.5"></path><path d="M1121.66 554.76L1121.66 554.76" stroke="#132e65" stroke-width="1.5"></path><path d="M1121.66 554.76L1133.18 660.54" stroke="#132e65" stroke-width="1.5"></path><path d="M1133.18 660.54L1133.18 660.54" stroke="#132e65" stroke-width="1.5"></path><path d="M1133.18 660.54L1247.61 660.31" stroke="#132e65" stroke-width="1.5"></path><path d="M1244.09 -83.05L1244.09 -83.05" stroke="#132e65" stroke-width="1.5"></path><path d="M1244.09 -83.05L1267.67 101.93" stroke="#132e65" stroke-width="1.5"></path><path d="M1267.67 101.93L1267.67 101.93" stroke="#132e65" stroke-width="1.5"></path><path d="M1267.67 101.93L1416.22 73.42" stroke="#132e65" stroke-width="1.5"></path><path d="M1267.67 101.93L1285.73 260.42" stroke="#132e65" stroke-width="1.5"></path><path d="M1285.73 260.42L1285.73 260.42" stroke="#132e65" stroke-width="1.5"></path><path d="M1285.73 260.42L1279.53 343.73" stroke="#132e65" stroke-width="1.5"></path><path d="M1285.73 260.42L1426.38 210.56" stroke="#132e65" stroke-width="1.5"></path><path d="M1279.53 343.73L1279.53 343.73" stroke="#132e65" stroke-width="1.5"></path><path d="M1279.53 343.73L1438.02 400.67" stroke="#132e65" stroke-width="1.5"></path><path d="M1279.53 343.73L1426.38 210.56" stroke="#132e65" stroke-width="1.5"></path><path d="M1279.53 343.73L1300.83 555.74" stroke="#132e65" stroke-width="1.5"></path><path d="M1300.83 555.74L1300.83 555.74" stroke="#132e65" stroke-width="1.5"></path><path d="M1300.83 555.74L1247.61 660.31" stroke="#132e65" stroke-width="1.5"></path><path d="M1300.83 555.74L1453.23 508.63" stroke="#132e65" stroke-width="1.5"></path><path d="M1300.83 555.74L1121.66 554.76" stroke="#132e65" stroke-width="1.5"></path><path d="M1247.61 660.31L1247.61 660.31" stroke="#132e65" stroke-width="1.5"></path><path d="M1247.61 660.31L1121.66 554.76" stroke="#132e65" stroke-width="1.5"></path><path d="M1247.61 660.31L1430.14 687.4" stroke="#132e65" stroke-width="1.5"></path><path d="M1247.61 660.31L1453.23 508.63" stroke="#132e65" stroke-width="1.5"></path><path d="M1247.61 660.31L964.29 551.16" stroke="#132e65" stroke-width="1.5"></path><path d="M1441.93 -91.78L1441.93 -91.78" stroke="#132e65" stroke-width="1.5"></path><path d="M1441.93 -91.78L1569.92 -53.12" stroke="#132e65" stroke-width="1.5"></path><path d="M1441.93 -91.78L1416.22 73.42" stroke="#132e65" stroke-width="1.5"></path><path d="M1416.22 73.42L1416.22 73.42" stroke="#132e65" stroke-width="1.5"></path><path d="M1416.22 73.42L1426.38 210.56" stroke="#132e65" stroke-width="1.5"></path><path d="M1426.38 210.56L1426.38 210.56" stroke="#132e65" stroke-width="1.5"></path><path d="M1426.38 210.56L1608.48 191.54" stroke="#132e65" stroke-width="1.5"></path><path d="M1426.38 210.56L1438.02 400.67" stroke="#132e65" stroke-width="1.5"></path><path d="M1438.02 400.67L1438.02 400.67" stroke="#132e65" stroke-width="1.5"></path><path d="M1438.02 400.67L1453.23 508.63" stroke="#132e65" stroke-width="1.5"></path><path d="M1438.02 400.67L1595.6 346.54" stroke="#132e65" stroke-width="1.5"></path><path d="M1438.02 400.67L1562.34 561.32" stroke="#132e65" stroke-width="1.5"></path><path d="M1453.23 508.63L1453.23 508.63" stroke="#132e65" stroke-width="1.5"></path><path d="M1453.23 508.63L1562.34 561.32" stroke="#132e65" stroke-width="1.5"></path><path d="M1430.14 687.4L1430.14 687.4" stroke="#132e65" stroke-width="1.5"></path><path d="M1430.14 687.4L1578.99 651.47" stroke="#132e65" stroke-width="1.5"></path><path d="M1430.14 687.4L1453.23 508.63" stroke="#132e65" stroke-width="1.5"></path><path d="M1430.14 687.4L1562.34 561.32" stroke="#132e65" stroke-width="1.5"></path><path d="M1430.14 687.4L1300.83 555.74" stroke="#132e65" stroke-width="1.5"></path><path d="M1430.14 687.4L1438.02 400.67" stroke="#132e65" stroke-width="1.5"></path><path d="M1569.92 -53.12L1569.92 -53.12" stroke="#132e65" stroke-width="1.5"></path><path d="M1569.92 -53.12L1594.75 65.88" stroke="#132e65" stroke-width="1.5"></path><path d="M1569.92 -53.12L1416.22 73.42" stroke="#132e65" stroke-width="1.5"></path><path d="M1569.92 -53.12L1608.48 191.54" stroke="#132e65" stroke-width="1.5"></path><path d="M1569.92 -53.12L1426.38 210.56" stroke="#132e65" stroke-width="1.5"></path><path d="M1594.75 65.88L1594.75 65.88" stroke="#132e65" stroke-width="1.5"></path><path d="M1594.75 65.88L1608.48 191.54" stroke="#132e65" stroke-width="1.5"></path><path d="M1594.75 65.88L1416.22 73.42" stroke="#132e65" stroke-width="1.5"></path><path d="M1594.75 65.88L1441.93 -91.78" stroke="#132e65" stroke-width="1.5"></path><path d="M1594.75 65.88L1426.38 210.56" stroke="#132e65" stroke-width="1.5"></path><path d="M1594.75 65.88L1595.6 346.54" stroke="#132e65" stroke-width="1.5"></path><path d="M1608.48 191.54L1608.48 191.54" stroke="#132e65" stroke-width="1.5"></path><path d="M1608.48 191.54L1595.6 346.54" stroke="#132e65" stroke-width="1.5"></path><path d="M1595.6 346.54L1595.6 346.54" stroke="#132e65" stroke-width="1.5"></path><path d="M1595.6 346.54L1453.23 508.63" stroke="#132e65" stroke-width="1.5"></path><path d="M1595.6 346.54L1426.38 210.56" stroke="#132e65" stroke-width="1.5"></path><path d="M1562.34 561.32L1562.34 561.32" stroke="#132e65" stroke-width="1.5"></path><path d="M1562.34 561.32L1578.99 651.47" stroke="#132e65" stroke-width="1.5"></path><path d="M1578.99 651.47L1578.99 651.47" stroke="#132e65" stroke-width="1.5"></path><circle r="5" cx="-87.14" cy="347.85" fill="#132e65"></circle><circle r="5" cx="-86.97" cy="491.63" fill="#132e65"></circle><circle r="5" cx="49.69" cy="545.35" fill="#132e65"></circle><circle r="5" cx="89.63" cy="707.38" fill="#132e65"></circle><circle r="5" cx="190.03" cy="377.49" fill="#132e65"></circle><circle r="5" cx="246.31" cy="661.25" fill="#132e65"></circle><circle r="5" cx="401.36" cy="540.07" fill="#132e65"></circle><circle r="5" cx="384.42" cy="668.81" fill="#132e65"></circle><circle r="5" cx="559.81" cy="394.3" fill="#132e65"></circle><circle r="5" cx="520.84" cy="524.41" fill="#132e65"></circle><circle r="5" cx="553.32" cy="678.58" fill="#132e65"></circle><circle r="5" cx="661.07" cy="356.61" fill="#132e65"></circle><circle r="5" cx="685.86" cy="524.72" fill="#132e65"></circle><circle r="5" cx="640.42" cy="696.47" fill="#132e65"></circle><circle r="5" cx="861.28" cy="221.75" fill="#132e65"></circle><circle r="5" cx="851.51" cy="357.06" fill="#132e65"></circle><circle r="5" cx="801.08" cy="546.32" fill="#132e65"></circle><circle r="5" cx="821.37" cy="697.57" fill="#132e65"></circle><circle r="5" cx="1009.25" cy="-104.75" fill="#132e65"></circle><circle r="5" cx="979.92" cy="109.86" fill="#132e65"></circle><circle r="5" cx="966.34" cy="254.1" fill="#132e65"></circle><circle r="5" cx="986.61" cy="398.78" fill="#132e65"></circle><circle r="5" cx="964.29" cy="551.16" fill="#132e65"></circle><circle r="5" cx="938.54" cy="637.51" fill="#132e65"></circle><circle r="5" cx="1150.74" cy="-85.17" fill="#132e65"></circle><circle r="5" cx="1149.64" cy="106.08" fill="#132e65"></circle><circle r="5" cx="1121.66" cy="554.76" fill="#132e65"></circle><circle r="5" cx="1133.18" cy="660.54" fill="#132e65"></circle><circle r="5" cx="1244.09" cy="-83.05" fill="#132e65"></circle><circle r="5" cx="1267.67" cy="101.93" fill="#132e65"></circle><circle r="5" cx="1285.73" cy="260.42" fill="#132e65"></circle><circle r="5" cx="1279.53" cy="343.73" fill="#132e65"></circle><circle r="5" cx="1300.83" cy="555.74" fill="#132e65"></circle><circle r="5" cx="1247.61" cy="660.31" fill="#132e65"></circle><circle r="5" cx="1441.93" cy="-91.78" fill="#132e65"></circle><circle r="5" cx="1416.22" cy="73.42" fill="#132e65"></circle><circle r="5" cx="1426.38" cy="210.56" fill="#132e65"></circle><circle r="5" cx="1438.02" cy="400.67" fill="#132e65"></circle><circle r="5" cx="1453.23" cy="508.63" fill="#132e65"></circle><circle r="5" cx="1430.14" cy="687.4" fill="#132e65"></circle><circle r="5" cx="1569.92" cy="-53.12" fill="#132e65"></circle><circle r="5" cx="1594.75" cy="65.88" fill="#132e65"></circle><circle r="5" cx="1608.48" cy="191.54" fill="#132e65"></circle><circle r="5" cx="1595.6" cy="346.54" fill="#132e65"></circle><circle r="5" cx="1562.34" cy="561.32" fill="#132e65"></circle><circle r="5" cx="1578.99" cy="651.47" fill="#132e65"></circle><path d="M948.7 260.91L948.7 260.91" stroke="hsl(228.5, 77.2%, 51.5%)" stroke-width="1.5"></path><path d="M948.7 260.91L980.75 367.22" stroke="hsl(228.5, 77.2%, 51.5%)" stroke-width="1.5"></path><path d="M948.7 260.91L860 351.37" stroke="hsl(228.5, 77.2%, 51.5%)" stroke-width="1.5"></path><path d="M948.7 260.91L1140.91 205.71" stroke="hsl(228.5, 77.2%, 51.5%)" stroke-width="1.5"></path><path d="M948.7 260.91L997.74 496.38" stroke="hsl(228.5, 77.2%, 51.5%)" stroke-width="1.5"></path><path d="M997.74 496.38L997.74 496.38" stroke="hsl(228.5, 77.2%, 51.5%)" stroke-width="1.5"></path><path d="M997.74 496.38L1124.66 512.81" stroke="hsl(228.5, 77.2%, 51.5%)" stroke-width="1.5"></path><path d="M997.74 496.38L980.75 367.22" stroke="hsl(228.5, 77.2%, 51.5%)" stroke-width="1.5"></path><path d="M997.74 496.38L842.9 515.43" stroke="hsl(228.5, 77.2%, 51.5%)" stroke-width="1.5"></path><path d="M997.74 496.38L962.34 678.19" stroke="hsl(228.5, 77.2%, 51.5%)" stroke-width="1.5"></path><path d="M997.74 496.38L860 351.37" stroke="hsl(228.5, 77.2%, 51.5%)" stroke-width="1.5"></path><path d="M997.74 496.38L1106.74 709.33" stroke="hsl(228.5, 77.2%, 51.5%)" stroke-width="1.5"></path><path d="M1140.91 205.71L1140.91 205.71" stroke="hsl(228.5, 77.2%, 51.5%)" stroke-width="1.5"></path><path d="M1140.91 205.71L1128.07 91.26" stroke="hsl(228.5, 77.2%, 51.5%)" stroke-width="1.5"></path><path d="M1140.91 205.71L1276.58 255.78" stroke="hsl(228.5, 77.2%, 51.5%)" stroke-width="1.5"></path><path d="M1140.91 205.71L1239.69 42.33" stroke="hsl(228.5, 77.2%, 51.5%)" stroke-width="1.5"></path><path d="M1140.91 205.71L1291.64 346.43" stroke="hsl(228.5, 77.2%, 51.5%)" stroke-width="1.5"></path><path d="M1282.52 -52.74L1282.52 -52.74" stroke="hsl(228.5, 77.2%, 51.5%)" stroke-width="1.5"></path><path d="M1282.52 -52.74L1239.69 42.33" stroke="hsl(228.5, 77.2%, 51.5%)" stroke-width="1.5"></path><path d="M1282.52 -52.74L1417.63 -65.13" stroke="hsl(228.5, 77.2%, 51.5%)" stroke-width="1.5"></path><path d="M1291.64 346.43L1291.64 346.43" stroke="hsl(228.5, 77.2%, 51.5%)" stroke-width="1.5"></path><path d="M1291.64 346.43L1276.58 255.78" stroke="hsl(228.5, 77.2%, 51.5%)" stroke-width="1.5"></path><path d="M1291.64 346.43L1401.53 358.71" stroke="hsl(228.5, 77.2%, 51.5%)" stroke-width="1.5"></path><path d="M1291.64 346.43L1243.3 497.65" stroke="hsl(228.5, 77.2%, 51.5%)" stroke-width="1.5"></path><path d="M1291.64 346.43L1401.61 193.15" stroke="hsl(228.5, 77.2%, 51.5%)" stroke-width="1.5"></path><path d="M1434.87 104.85L1434.87 104.85" stroke="hsl(228.5, 77.2%, 51.5%)" stroke-width="1.5"></path><path d="M1434.87 104.85L1401.61 193.15" stroke="hsl(228.5, 77.2%, 51.5%)" stroke-width="1.5"></path><path d="M1434.87 104.85L1542.25 51.46" stroke="hsl(228.5, 77.2%, 51.5%)" stroke-width="1.5"></path><path d="M1434.87 104.85L1417.63 -65.13" stroke="hsl(228.5, 77.2%, 51.5%)" stroke-width="1.5"></path><path d="M1434.87 104.85L1575.86 219.51" stroke="hsl(228.5, 77.2%, 51.5%)" stroke-width="1.5"></path><path d="M1434.87 104.85L1239.69 42.33" stroke="hsl(228.5, 77.2%, 51.5%)" stroke-width="1.5"></path><path d="M1434.87 104.85L1560.73 -69.56" stroke="hsl(228.5, 77.2%, 51.5%)" stroke-width="1.5"></path><path d="M1542.25 51.46L1542.25 51.46" stroke="hsl(228.5, 77.2%, 51.5%)" stroke-width="1.5"></path><path d="M1542.25 51.46L1560.73 -69.56" stroke="hsl(228.5, 77.2%, 51.5%)" stroke-width="1.5"></path><path d="M1542.25 51.46L1417.63 -65.13" stroke="hsl(228.5, 77.2%, 51.5%)" stroke-width="1.5"></path><path d="M1542.25 51.46L1575.86 219.51" stroke="hsl(228.5, 77.2%, 51.5%)" stroke-width="1.5"></path><path d="M-52.79 549.64L-52.79 549.64" stroke="hsl(228.5, 77.2%, 51.5%)" stroke-width="1.5"></path><path d="M-52.79 549.64L-80.58 701.02" stroke="hsl(228.5, 77.2%, 51.5%)" stroke-width="1.5"></path><path d="M-52.79 549.64L110.45 544.87" stroke="hsl(228.5, 77.2%, 51.5%)" stroke-width="1.5"></path><path d="M-52.79 549.64L38.82 698.76" stroke="hsl(228.5, 77.2%, 51.5%)" stroke-width="1.5"></path><path d="M-80.58 701.02L-80.58 701.02" stroke="hsl(228.5, 77.2%, 51.5%)" stroke-width="1.5"></path><path d="M-80.58 701.02L38.82 698.76" stroke="hsl(228.5, 77.2%, 51.5%)" stroke-width="1.5"></path><path d="M-80.58 701.02L110.45 544.87" stroke="hsl(228.5, 77.2%, 51.5%)" stroke-width="1.5"></path><path d="M-80.58 701.02L211.32 703.59" stroke="hsl(228.5, 77.2%, 51.5%)" stroke-width="1.5"></path><path d="M-80.58 701.02L213.24 538.9" stroke="hsl(228.5, 77.2%, 51.5%)" stroke-width="1.5"></path><path d="M-80.58 701.02L345.97 519.46" stroke="hsl(228.5, 77.2%, 51.5%)" stroke-width="1.5"></path><path d="M110.45 544.87L110.45 544.87" stroke="hsl(228.5, 77.2%, 51.5%)" stroke-width="1.5"></path><path d="M110.45 544.87L213.24 538.9" stroke="hsl(228.5, 77.2%, 51.5%)" stroke-width="1.5"></path><path d="M38.82 698.76L38.82 698.76" stroke="hsl(228.5, 77.2%, 51.5%)" stroke-width="1.5"></path><path d="M38.82 698.76L110.45 544.87" stroke="hsl(228.5, 77.2%, 51.5%)" stroke-width="1.5"></path><path d="M38.82 698.76L211.32 703.59" stroke="hsl(228.5, 77.2%, 51.5%)" stroke-width="1.5"></path><path d="M38.82 698.76L213.24 538.9" stroke="hsl(228.5, 77.2%, 51.5%)" stroke-width="1.5"></path><path d="M38.82 698.76L345.97 519.46" stroke="hsl(228.5, 77.2%, 51.5%)" stroke-width="1.5"></path><path d="M213.24 538.9L213.24 538.9" stroke="hsl(228.5, 77.2%, 51.5%)" stroke-width="1.5"></path><path d="M213.24 538.9L345.97 519.46" stroke="hsl(228.5, 77.2%, 51.5%)" stroke-width="1.5"></path><path d="M213.24 538.9L211.32 703.59" stroke="hsl(228.5, 77.2%, 51.5%)" stroke-width="1.5"></path><path d="M213.24 538.9L406.49 656.43" stroke="hsl(228.5, 77.2%, 51.5%)" stroke-width="1.5"></path><path d="M213.24 538.9L-52.79 549.64" stroke="hsl(228.5, 77.2%, 51.5%)" stroke-width="1.5"></path><path d="M211.32 703.59L211.32 703.59" stroke="hsl(228.5, 77.2%, 51.5%)" stroke-width="1.5"></path><path d="M211.32 703.59L110.45 544.87" stroke="hsl(228.5, 77.2%, 51.5%)" stroke-width="1.5"></path><path d="M345.97 519.46L345.97 519.46" stroke="hsl(228.5, 77.2%, 51.5%)" stroke-width="1.5"></path><path d="M345.97 519.46L406.49 656.43" stroke="hsl(228.5, 77.2%, 51.5%)" stroke-width="1.5"></path><path d="M406.49 656.43L406.49 656.43" stroke="hsl(228.5, 77.2%, 51.5%)" stroke-width="1.5"></path><path d="M406.49 656.43L510.65 707.71" stroke="hsl(228.5, 77.2%, 51.5%)" stroke-width="1.5"></path><path d="M493.66 552.4L493.66 552.4" stroke="hsl(228.5, 77.2%, 51.5%)" stroke-width="1.5"></path><path d="M493.66 552.4L406.49 656.43" stroke="hsl(228.5, 77.2%, 51.5%)" stroke-width="1.5"></path><path d="M493.66 552.4L345.97 519.46" stroke="hsl(228.5, 77.2%, 51.5%)" stroke-width="1.5"></path><path d="M493.66 552.4L510.65 707.71" stroke="hsl(228.5, 77.2%, 51.5%)" stroke-width="1.5"></path><path d="M510.65 707.71L510.65 707.71" stroke="hsl(228.5, 77.2%, 51.5%)" stroke-width="1.5"></path><path d="M676.89 385.95L676.89 385.95" stroke="hsl(228.5, 77.2%, 51.5%)" stroke-width="1.5"></path><path d="M676.89 385.95L687.23 519.64" stroke="hsl(228.5, 77.2%, 51.5%)" stroke-width="1.5"></path><path d="M676.89 385.95L860 351.37" stroke="hsl(228.5, 77.2%, 51.5%)" stroke-width="1.5"></path><path d="M687.23 519.64L687.23 519.64" stroke="hsl(228.5, 77.2%, 51.5%)" stroke-width="1.5"></path><path d="M687.23 519.64L842.9 515.43" stroke="hsl(228.5, 77.2%, 51.5%)" stroke-width="1.5"></path><path d="M687.23 519.64L695.39 687.12" stroke="hsl(228.5, 77.2%, 51.5%)" stroke-width="1.5"></path><path d="M695.39 687.12L695.39 687.12" stroke="hsl(228.5, 77.2%, 51.5%)" stroke-width="1.5"></path><path d="M695.39 687.12L806.26 663.75" stroke="hsl(228.5, 77.2%, 51.5%)" stroke-width="1.5"></path><path d="M695.39 687.12L510.65 707.71" stroke="hsl(228.5, 77.2%, 51.5%)" stroke-width="1.5"></path><path d="M860 351.37L860 351.37" stroke="hsl(228.5, 77.2%, 51.5%)" stroke-width="1.5"></path><path d="M860 351.37L980.75 367.22" stroke="hsl(228.5, 77.2%, 51.5%)" stroke-width="1.5"></path><path d="M860 351.37L842.9 515.43" stroke="hsl(228.5, 77.2%, 51.5%)" stroke-width="1.5"></path><path d="M842.9 515.43L842.9 515.43" stroke="hsl(228.5, 77.2%, 51.5%)" stroke-width="1.5"></path><path d="M842.9 515.43L806.26 663.75" stroke="hsl(228.5, 77.2%, 51.5%)" stroke-width="1.5"></path><path d="M806.26 663.75L806.26 663.75" stroke="hsl(228.5, 77.2%, 51.5%)" stroke-width="1.5"></path><path d="M806.26 663.75L962.34 678.19" stroke="hsl(228.5, 77.2%, 51.5%)" stroke-width="1.5"></path><path d="M806.26 663.75L687.23 519.64" stroke="hsl(228.5, 77.2%, 51.5%)" stroke-width="1.5"></path><path d="M980.75 367.22L980.75 367.22" stroke="hsl(228.5, 77.2%, 51.5%)" stroke-width="1.5"></path><path d="M980.75 367.22L842.9 515.43" stroke="hsl(228.5, 77.2%, 51.5%)" stroke-width="1.5"></path><path d="M980.75 367.22L1124.66 512.81" stroke="hsl(228.5, 77.2%, 51.5%)" stroke-width="1.5"></path><path d="M962.34 678.19L962.34 678.19" stroke="hsl(228.5, 77.2%, 51.5%)" stroke-width="1.5"></path><path d="M962.34 678.19L1106.74 709.33" stroke="hsl(228.5, 77.2%, 51.5%)" stroke-width="1.5"></path><path d="M962.34 678.19L842.9 515.43" stroke="hsl(228.5, 77.2%, 51.5%)" stroke-width="1.5"></path><path d="M962.34 678.19L1124.66 512.81" stroke="hsl(228.5, 77.2%, 51.5%)" stroke-width="1.5"></path><path d="M962.34 678.19L695.39 687.12" stroke="hsl(228.5, 77.2%, 51.5%)" stroke-width="1.5"></path><path d="M1128.07 91.26L1128.07 91.26" stroke="hsl(228.5, 77.2%, 51.5%)" stroke-width="1.5"></path><path d="M1128.07 91.26L1239.69 42.33" stroke="hsl(228.5, 77.2%, 51.5%)" stroke-width="1.5"></path><path d="M1128.07 91.26L1282.52 -52.74" stroke="hsl(228.5, 77.2%, 51.5%)" stroke-width="1.5"></path><path d="M1128.07 91.26L1276.58 255.78" stroke="hsl(228.5, 77.2%, 51.5%)" stroke-width="1.5"></path><path d="M1124.66 512.81L1124.66 512.81" stroke="hsl(228.5, 77.2%, 51.5%)" stroke-width="1.5"></path><path d="M1124.66 512.81L1243.3 497.65" stroke="hsl(228.5, 77.2%, 51.5%)" stroke-width="1.5"></path><path d="M1124.66 512.81L1106.74 709.33" stroke="hsl(228.5, 77.2%, 51.5%)" stroke-width="1.5"></path><path d="M1124.66 512.81L1285.64 643.39" stroke="hsl(228.5, 77.2%, 51.5%)" stroke-width="1.5"></path><path d="M1106.74 709.33L1106.74 709.33" stroke="hsl(228.5, 77.2%, 51.5%)" stroke-width="1.5"></path><path d="M1106.74 709.33L1285.64 643.39" stroke="hsl(228.5, 77.2%, 51.5%)" stroke-width="1.5"></path><path d="M1239.69 42.33L1239.69 42.33" stroke="hsl(228.5, 77.2%, 51.5%)" stroke-width="1.5"></path><path d="M1239.69 42.33L1417.63 -65.13" stroke="hsl(228.5, 77.2%, 51.5%)" stroke-width="1.5"></path><path d="M1276.58 255.78L1276.58 255.78" stroke="hsl(228.5, 77.2%, 51.5%)" stroke-width="1.5"></path><path d="M1276.58 255.78L1401.61 193.15" stroke="hsl(228.5, 77.2%, 51.5%)" stroke-width="1.5"></path><path d="M1243.3 497.65L1243.3 497.65" stroke="hsl(228.5, 77.2%, 51.5%)" stroke-width="1.5"></path><path d="M1243.3 497.65L1285.64 643.39" stroke="hsl(228.5, 77.2%, 51.5%)" stroke-width="1.5"></path><path d="M1243.3 497.65L1432.51 530.22" stroke="hsl(228.5, 77.2%, 51.5%)" stroke-width="1.5"></path><path d="M1243.3 497.65L1401.53 358.71" stroke="hsl(228.5, 77.2%, 51.5%)" stroke-width="1.5"></path><path d="M1285.64 643.39L1285.64 643.39" stroke="hsl(228.5, 77.2%, 51.5%)" stroke-width="1.5"></path><path d="M1285.64 643.39L1441.3 696.56" stroke="hsl(228.5, 77.2%, 51.5%)" stroke-width="1.5"></path><path d="M1285.64 643.39L1432.51 530.22" stroke="hsl(228.5, 77.2%, 51.5%)" stroke-width="1.5"></path><path d="M1285.64 643.39L1539.57 550.63" stroke="hsl(228.5, 77.2%, 51.5%)" stroke-width="1.5"></path><path d="M1417.63 -65.13L1417.63 -65.13" stroke="hsl(228.5, 77.2%, 51.5%)" stroke-width="1.5"></path><path d="M1417.63 -65.13L1560.73 -69.56" stroke="hsl(228.5, 77.2%, 51.5%)" stroke-width="1.5"></path><path d="M1417.63 -65.13L1401.61 193.15" stroke="hsl(228.5, 77.2%, 51.5%)" stroke-width="1.5"></path><path d="M1401.61 193.15L1401.61 193.15" stroke="hsl(228.5, 77.2%, 51.5%)" stroke-width="1.5"></path><path d="M1401.61 193.15L1401.53 358.71" stroke="hsl(228.5, 77.2%, 51.5%)" stroke-width="1.5"></path><path d="M1401.53 358.71L1401.53 358.71" stroke="hsl(228.5, 77.2%, 51.5%)" stroke-width="1.5"></path><path d="M1401.53 358.71L1557.88 355.61" stroke="hsl(228.5, 77.2%, 51.5%)" stroke-width="1.5"></path><path d="M1401.53 358.71L1276.58 255.78" stroke="hsl(228.5, 77.2%, 51.5%)" stroke-width="1.5"></path><path d="M1432.51 530.22L1432.51 530.22" stroke="hsl(228.5, 77.2%, 51.5%)" stroke-width="1.5"></path><path d="M1432.51 530.22L1539.57 550.63" stroke="hsl(228.5, 77.2%, 51.5%)" stroke-width="1.5"></path><path d="M1432.51 530.22L1441.3 696.56" stroke="hsl(228.5, 77.2%, 51.5%)" stroke-width="1.5"></path><path d="M1432.51 530.22L1401.53 358.71" stroke="hsl(228.5, 77.2%, 51.5%)" stroke-width="1.5"></path><path d="M1441.3 696.56L1441.3 696.56" stroke="hsl(228.5, 77.2%, 51.5%)" stroke-width="1.5"></path><path d="M1441.3 696.56L1593.56 637.76" stroke="hsl(228.5, 77.2%, 51.5%)" stroke-width="1.5"></path><path d="M1560.73 -69.56L1560.73 -69.56" stroke="hsl(228.5, 77.2%, 51.5%)" stroke-width="1.5"></path><path d="M1575.86 219.51L1575.86 219.51" stroke="hsl(228.5, 77.2%, 51.5%)" stroke-width="1.5"></path><path d="M1575.86 219.51L1557.88 355.61" stroke="hsl(228.5, 77.2%, 51.5%)" stroke-width="1.5"></path><path d="M1557.88 355.61L1557.88 355.61" stroke="hsl(228.5, 77.2%, 51.5%)" stroke-width="1.5"></path><path d="M1557.88 355.61L1539.57 550.63" stroke="hsl(228.5, 77.2%, 51.5%)" stroke-width="1.5"></path><path d="M1557.88 355.61L1432.51 530.22" stroke="hsl(228.5, 77.2%, 51.5%)" stroke-width="1.5"></path><path d="M1539.57 550.63L1539.57 550.63" stroke="hsl(228.5, 77.2%, 51.5%)" stroke-width="1.5"></path><path d="M1539.57 550.63L1593.56 637.76" stroke="hsl(228.5, 77.2%, 51.5%)" stroke-width="1.5"></path><path d="M1593.56 637.76L1593.56 637.76" stroke="hsl(228.5, 77.2%, 51.5%)" stroke-width="1.5"></path><path d="M1593.56 637.76L1432.51 530.22" stroke="hsl(228.5, 77.2%, 51.5%)" stroke-width="1.5"></path><circle r="25" cx="948.7" cy="260.91" fill="url(#SvgjsRadialGradient1014)"></circle><circle r="25" cx="997.74" cy="496.38" fill="url(#SvgjsRadialGradient1014)"></circle><circle r="25" cx="1140.91" cy="205.71" fill="url(#SvgjsRadialGradient1014)"></circle><circle r="25" cx="1282.52" cy="-52.74" fill="url(#SvgjsRadialGradient1014)"></circle><circle r="25" cx="1291.64" cy="346.43" fill="url(#SvgjsRadialGradient1014)"></circle><circle r="25" cx="1434.87" cy="104.85" fill="url(#SvgjsRadialGradient1014)"></circle><circle r="25" cx="1542.25" cy="51.46" fill="url(#SvgjsRadialGradient1014)"></circle><circle r="5" cx="-52.79" cy="549.64" fill="#8b9ad9"></circle><circle r="5" cx="-80.58" cy="701.02" fill="#8b9ad9"></circle><circle r="5" cx="110.45" cy="544.87" fill="#8b9ad9"></circle><circle r="5" cx="38.82" cy="698.76" fill="#8b9ad9"></circle><circle r="5" cx="213.24" cy="538.9" fill="#8b9ad9"></circle><circle r="5" cx="211.32" cy="703.59" fill="#8b9ad9"></circle><circle r="5" cx="345.97" cy="519.46" fill="#8b9ad9"></circle><circle r="5" cx="406.49" cy="656.43" fill="#8b9ad9"></circle><circle r="5" cx="493.66" cy="552.4" fill="#8b9ad9"></circle><circle r="5" cx="510.65" cy="707.71" fill="#8b9ad9"></circle><circle r="5" cx="676.89" cy="385.95" fill="#8b9ad9"></circle><circle r="5" cx="687.23" cy="519.64" fill="#8b9ad9"></circle><circle r="5" cx="695.39" cy="687.12" fill="#8b9ad9"></circle><circle r="5" cx="860" cy="351.37" fill="#8b9ad9"></circle><circle r="5" cx="842.9" cy="515.43" fill="#8b9ad9"></circle><circle r="5" cx="806.26" cy="663.75" fill="#8b9ad9"></circle><circle r="5" cx="980.75" cy="367.22" fill="#8b9ad9"></circle><circle r="5" cx="962.34" cy="678.19" fill="#8b9ad9"></circle><circle r="5" cx="1128.07" cy="91.26" fill="#8b9ad9"></circle><circle r="5" cx="1124.66" cy="512.81" fill="#8b9ad9"></circle><circle r="5" cx="1106.74" cy="709.33" fill="#8b9ad9"></circle><circle r="5" cx="1239.69" cy="42.33" fill="#8b9ad9"></circle><circle r="5" cx="1276.58" cy="255.78" fill="#8b9ad9"></circle><circle r="5" cx="1243.3" cy="497.65" fill="#8b9ad9"></circle><circle r="5" cx="1285.64" cy="643.39" fill="#8b9ad9"></circle><circle r="5" cx="1417.63" cy="-65.13" fill="#8b9ad9"></circle><circle r="5" cx="1401.61" cy="193.15" fill="#8b9ad9"></circle><circle r="5" cx="1401.53" cy="358.71" fill="#8b9ad9"></circle><circle r="5" cx="1432.51" cy="530.22" fill="#8b9ad9"></circle><circle r="5" cx="1441.3" cy="696.56" fill="#8b9ad9"></circle><circle r="5" cx="1560.73" cy="-69.56" fill="#8b9ad9"></circle><circle r="5" cx="1575.86" cy="219.51" fill="#8b9ad9"></circle><circle r="5" cx="1557.88" cy="355.61" fill="#8b9ad9"></circle><circle r="5" cx="1539.57" cy="550.63" fill="#8b9ad9"></circle><circle r="5" cx="1593.56" cy="637.76" fill="#8b9ad9"></circle></g><defs><mask id="SvgjsMask1013"><rect width="1440" height="560" fill="#ffffff"></rect></mask><radialGradient id="SvgjsRadialGradient1014"><stop stop-color="#ffffff" offset="0.1"></stop><stop stop-color="#1735b3" offset="0.2"></stop><stop stop-color="rgba(23, 53, 179, 0)" offset="1"></stop></radialGradient></defs></svg>