<?xml version="1.0" standalone="no"?>
<svg xmlns:xlink="http://www.w3.org/1999/xlink" id="wave" style="transform:rotate(180deg); transition: 0.3s" viewBox="0 0 1440 490" version="1.1" xmlns="http://www.w3.org/2000/svg"><defs><linearGradient id="sw-gradient-0" x1="0" x2="0" y1="1" y2="0"><stop stop-color="rgba(113.07, 143.007, 248.597, 1)" offset="0%"/><stop stop-color="rgba(11, 106.224, 255, 1)" offset="100%"/></linearGradient></defs><path style="transform:translate(0, 0px); opacity:1" fill="url(#sw-gradient-0)" d="M0,343L60,302.2C120,261,240,180,360,122.5C480,65,600,33,720,16.3C840,0,960,0,1080,24.5C1200,49,1320,98,1440,130.7C1560,163,1680,180,1800,163.3C1920,147,2040,98,2160,122.5C2280,147,2400,245,2520,253.2C2640,261,2760,180,2880,171.5C3000,163,3120,229,3240,228.7C3360,229,3480,163,3600,122.5C3720,82,3840,65,3960,81.7C4080,98,4200,147,4320,204.2C4440,261,4560,327,4680,367.5C4800,408,4920,425,5040,383.8C5160,343,5280,245,5400,236.8C5520,229,5640,310,5760,343C5880,376,6000,359,6120,326.7C6240,294,6360,245,6480,196C6600,147,6720,98,6840,89.8C6960,82,7080,114,7200,114.3C7320,114,7440,82,7560,65.3C7680,49,7800,49,7920,49C8040,49,8160,49,8280,81.7C8400,114,8520,180,8580,212.3L8640,245L8640,490L8580,490C8520,490,8400,490,8280,490C8160,490,8040,490,7920,490C7800,490,7680,490,7560,490C7440,490,7320,490,7200,490C7080,490,6960,490,6840,490C6720,490,6600,490,6480,490C6360,490,6240,490,6120,490C6000,490,5880,490,5760,490C5640,490,5520,490,5400,490C5280,490,5160,490,5040,490C4920,490,4800,490,4680,490C4560,490,4440,490,4320,490C4200,490,4080,490,3960,490C3840,490,3720,490,3600,490C3480,490,3360,490,3240,490C3120,490,3000,490,2880,490C2760,490,2640,490,2520,490C2400,490,2280,490,2160,490C2040,490,1920,490,1800,490C1680,490,1560,490,1440,490C1320,490,1200,490,1080,490C960,490,840,490,720,490C600,490,480,490,360,490C240,490,120,490,60,490L0,490Z"/></svg>